<svg width="20" height="20" viewBox="0 0 20 20" fill="none" xmlns="http://www.w3.org/2000/svg">
<path d="M5 4.0625V5H4.375C3.5462 5 2.75134 5.32924 2.16529 5.91529C1.57924 6.50134 1.25 7.2962 1.25 8.125V12.8125C1.25 13.3927 1.48047 13.9491 1.8907 14.3593C2.30094 14.7695 2.85734 15 3.4375 15H4.375V15.9375C4.375 16.5177 4.60547 17.0741 5.0157 17.4843C5.42594 17.8945 5.98234 18.125 6.5625 18.125H13.4375C14.0177 18.125 14.5741 17.8945 14.9843 17.4843C15.3945 17.0741 15.625 16.5177 15.625 15.9375V15H16.5625C17.1427 15 17.6991 14.7695 18.1093 14.3593C18.5195 13.9491 18.75 13.3927 18.75 12.8125V8.125C18.75 7.2962 18.4208 6.50134 17.8347 5.91529C17.2487 5.32924 16.4538 5 15.625 5H15V4.0625C15 3.48234 14.7695 2.92594 14.3593 2.5157C13.9491 2.10547 13.3927 1.875 12.8125 1.875H7.1875C6.60734 1.875 6.05094 2.10547 5.6407 2.5157C5.23047 2.92594 5 3.48234 5 4.0625ZM7.1875 3.125H12.8125C13.0611 3.125 13.2996 3.22377 13.4754 3.39959C13.6512 3.5754 13.75 3.81386 13.75 4.0625V5H6.25V4.0625C6.25 3.81386 6.34877 3.5754 6.52459 3.39959C6.7004 3.22377 6.93886 3.125 7.1875 3.125ZM5.625 12.1875C5.625 11.9389 5.72377 11.7004 5.89959 11.5246C6.0754 11.3488 6.31386 11.25 6.5625 11.25H13.4375C13.6861 11.25 13.9246 11.3488 14.1004 11.5246C14.2762 11.7004 14.375 11.9389 14.375 12.1875V15.9375C14.375 16.1861 14.2762 16.4246 14.1004 16.6004C13.9246 16.7762 13.6861 16.875 13.4375 16.875H6.5625C6.31386 16.875 6.0754 16.7762 5.89959 16.6004C5.72377 16.4246 5.625 16.1861 5.625 15.9375V12.1875Z" fill="#7B8389"/>
</svg>
