<svg width="20" height="20" viewBox="0 0 20 20" fill="none" xmlns="http://www.w3.org/2000/svg">
<path d="M10 12.5C11.3807 12.5 12.5 11.3807 12.5 10C12.5 8.61929 11.3807 7.5 10 7.5C8.61929 7.5 7.5 8.61929 7.5 10C7.5 11.3807 8.61929 12.5 10 12.5Z" fill="white"/>
<path d="M19.3375 9.7875C18.6024 7.88603 17.3262 6.24164 15.6667 5.05755C14.0072 3.87347 12.0372 3.20161 9.99998 3.125C7.9628 3.20161 5.99272 3.87347 4.33323 5.05755C2.67374 6.24164 1.39758 7.88603 0.662478 9.7875C0.612833 9.92482 0.612833 10.0752 0.662478 10.2125C1.39758 12.114 2.67374 13.7584 4.33323 14.9424C5.99272 16.1265 7.9628 16.7984 9.99998 16.875C12.0372 16.7984 14.0072 16.1265 15.6667 14.9424C17.3262 13.7584 18.6024 12.114 19.3375 10.2125C19.3871 10.0752 19.3871 9.92482 19.3375 9.7875ZM9.99998 14.0625C9.19649 14.0625 8.41105 13.8242 7.74297 13.3778C7.0749 12.9315 6.5542 12.297 6.24672 11.5547C5.93924 10.8123 5.85879 9.99549 6.01554 9.20745C6.17229 8.4194 6.55921 7.69553 7.12736 7.12738C7.69551 6.55923 8.41938 6.17231 9.20742 6.01556C9.99547 5.85881 10.8123 5.93926 11.5546 6.24674C12.297 6.55422 12.9314 7.07492 13.3778 7.743C13.8242 8.41107 14.0625 9.19651 14.0625 10C14.0608 11.0769 13.6323 12.1093 12.8708 12.8708C12.1093 13.6323 11.0769 14.0608 9.99998 14.0625Z" fill="white"/>
</svg>
