<svg width="20" height="20" viewBox="0 0 20 20" fill="none" xmlns="http://www.w3.org/2000/svg">
<g clip-path="url(#clip0_210_10083)">
<path fill-rule="evenodd" clip-rule="evenodd" d="M11.9 1.66669C12.2498 1.66678 12.5907 1.77692 12.8744 1.98153C13.1581 2.18613 13.3703 2.47481 13.4808 2.80669L13.9333 4.16669H16.6667C16.8877 4.16669 17.0996 4.25448 17.2559 4.41076C17.4122 4.56705 17.5 4.77901 17.5 5.00002C17.5 5.22103 17.4122 5.433 17.2559 5.58928C17.0996 5.74556 16.8877 5.83335 16.6667 5.83335L16.6642 5.89252L15.9417 16.0117C15.8966 16.6422 15.6143 17.2322 15.1517 17.663C14.6891 18.0938 14.0805 18.3333 13.4483 18.3334H6.55167C5.91955 18.3333 5.31092 18.0938 4.84831 17.663C4.38569 17.2322 4.10342 16.6422 4.05833 16.0117L3.33583 5.89169C3.33433 5.87228 3.33349 5.85282 3.33333 5.83335C3.11232 5.83335 2.90036 5.74556 2.74408 5.58928C2.5878 5.433 2.5 5.22103 2.5 5.00002C2.5 4.77901 2.5878 4.56705 2.74408 4.41076C2.90036 4.25448 3.11232 4.16669 3.33333 4.16669H6.06667L6.51917 2.80669C6.62975 2.47468 6.84203 2.1859 7.12592 1.98128C7.4098 1.77667 7.75089 1.6666 8.10083 1.66669H11.9ZM7.5 8.33335C7.29589 8.33338 7.09889 8.40832 6.94636 8.54395C6.79383 8.67958 6.69638 8.86648 6.6725 9.06919L6.66667 9.16669V14.1667C6.6669 14.3791 6.74823 14.5834 6.89404 14.7378C7.03985 14.8923 7.23913 14.9852 7.45116 14.9977C7.6632 15.0101 7.87198 14.9411 8.03486 14.8048C8.19774 14.6685 8.30241 14.4751 8.3275 14.2642L8.33333 14.1667V9.16669C8.33333 8.94567 8.24554 8.73371 8.08926 8.57743C7.93297 8.42115 7.72101 8.33335 7.5 8.33335ZM12.5 8.33335C12.279 8.33335 12.067 8.42115 11.9107 8.57743C11.7545 8.73371 11.6667 8.94567 11.6667 9.16669V14.1667C11.6667 14.3877 11.7545 14.5997 11.9107 14.7559C12.067 14.9122 12.279 15 12.5 15C12.721 15 12.933 14.9122 13.0893 14.7559C13.2455 14.5997 13.3333 14.3877 13.3333 14.1667V9.16669C13.3333 8.94567 13.2455 8.73371 13.0893 8.57743C12.933 8.42115 12.721 8.33335 12.5 8.33335ZM11.9 3.33335H8.1L7.8225 4.16669H12.1775L11.9 3.33335Z" fill="white"/>
</g>
<defs>
<clipPath id="clip0_210_10083">
<rect width="20" height="20" fill="white"/>
</clipPath>
</defs>
</svg>
