<svg width="20" height="20" viewBox="0 0 20 20" fill="none" xmlns="http://www.w3.org/2000/svg">
<path d="M4.16667 17.5C3.70833 17.5 3.31583 17.3367 2.98917 17.01C2.6625 16.6833 2.49945 16.2911 2.5 15.8333V4.16667C2.5 3.70833 2.66333 3.31583 2.99 2.98917C3.31667 2.6625 3.70889 2.49945 4.16667 2.5H7.5C7.95833 2.5 8.35083 2.66333 8.6775 2.99C9.00417 3.31667 9.16722 3.70889 9.16667 4.16667V15.8333C9.16667 16.2917 9.00333 16.6842 8.67667 17.0108C8.35 17.3375 7.95778 17.5006 7.5 17.5H4.16667ZM12.5 8.33333C12.0417 8.33333 11.6492 8.17 11.3225 7.84333C10.9958 7.51667 10.8328 7.12445 10.8333 6.66667V4.16667C10.8333 3.70833 10.9967 3.31583 11.3233 2.98917C11.65 2.6625 12.0422 2.49945 12.5 2.5H15.8333C16.2917 2.5 16.6842 2.66333 17.0108 2.99C17.3375 3.31667 17.5006 3.70889 17.5 4.16667V6.66667C17.5 7.125 17.3367 7.5175 17.01 7.84417C16.6833 8.17083 16.2911 8.33389 15.8333 8.33333H12.5ZM12.5 17.5C12.0417 17.5 11.6492 17.3367 11.3225 17.01C10.9958 16.6833 10.8328 16.2911 10.8333 15.8333V11.6667C10.8333 11.2083 10.9967 10.8158 11.3233 10.4892C11.65 10.1625 12.0422 9.99945 12.5 10H15.8333C16.2917 10 16.6842 10.1633 17.0108 10.49C17.3375 10.8167 17.5006 11.2089 17.5 11.6667V15.8333C17.5 16.2917 17.3367 16.6842 17.01 17.0108C16.6833 17.3375 16.2911 17.5006 15.8333 17.5H12.5Z" fill="white"/>
</svg>
