<svg width="20" height="20" viewBox="0 0 20 20" fill="none" xmlns="http://www.w3.org/2000/svg">
<g clip-path="url(#clip0_221_10367)">
<path d="M20.2778 11.3889V9.16667H11.3889V4.72222H9.16667V9.16667H4.72222V11.3889H9.16667V20.2778H11.3889V11.3889H20.2778ZM20.2778 2.5C20.8333 2.5 21.3889 2.72222 21.8222 3.17778C22.2778 3.61111 22.5 4.16667 22.5 4.72222V20.2778C22.5 20.8333 22.2778 21.3889 21.8222 21.8222C21.3889 22.2778 20.8333 22.5 20.2778 22.5H4.72222C4.16667 22.5 3.61111 22.2778 3.17778 21.8222C2.72222 21.3889 2.5 20.8333 2.5 20.2778V4.72222C2.5 4.16667 2.72222 3.61111 3.17778 3.17778C3.61111 2.72222 4.16667 2.5 4.72222 2.5H20.2778Z" fill="#888888"/>
</g>
<defs>
<clipPath id="clip0_221_10367">
<rect width="20" height="20" fill="white"/>
</clipPath>
</defs>
</svg>
