<svg width="20" height="20" viewBox="0 0 20 20" fill="none" xmlns="http://www.w3.org/2000/svg">
<path d="M15.8333 9.16667V7.5H9.16667V4.16667H7.5V7.5H4.16667V9.16667H7.5V15.8333H9.16667V9.16667H15.8333ZM15.8333 2.5C16.25 2.5 16.6667 2.66667 16.9917 3.00833C17.3333 3.33333 17.5 3.75 17.5 4.16667V15.8333C17.5 16.25 17.3333 16.6667 16.9917 16.9917C16.6667 17.3333 16.25 17.5 15.8333 17.5H4.16667C3.75 17.5 3.33333 17.3333 3.00833 16.9917C2.66667 16.6667 2.5 16.25 2.5 15.8333V4.16667C2.5 3.75 2.66667 3.33333 3.00833 3.00833C3.33333 2.66667 3.75 2.5 4.16667 2.5H15.8333Z" fill="white"/>
</svg>
