<svg width="20" height="20" viewBox="0 0 20 20" fill="none" xmlns="http://www.w3.org/2000/svg">
<path d="M9.99996 3.125C9.17116 3.125 8.3763 3.45424 7.79025 4.04029C7.2042 4.62634 6.87496 5.4212 6.87496 6.25C6.87496 7.0788 7.2042 7.87366 7.79025 8.45971C8.3763 9.04576 9.17116 9.375 9.99996 9.375C10.8288 9.375 11.6236 9.04576 12.2097 8.45971C12.7957 7.87366 13.125 7.0788 13.125 6.25C13.125 5.4212 12.7957 4.62634 12.2097 4.04029C11.6236 3.45424 10.8288 3.125 9.99996 3.125ZM6.66663 11.0417C5.83782 11.0417 5.04297 11.3709 4.45692 11.957C3.87087 12.543 3.54163 13.3379 3.54163 14.1667V15.1567C3.54163 15.785 3.99663 16.32 4.61663 16.4208C8.18163 17.0033 11.8183 17.0033 15.3833 16.4208C15.6834 16.372 15.9563 16.218 16.1532 15.9864C16.3501 15.7548 16.4583 15.4607 16.4583 15.1567V14.1667C16.4583 13.3379 16.1291 12.543 15.543 11.957C14.957 11.3709 14.1621 11.0417 13.3333 11.0417H13.05C12.8958 11.0417 12.7425 11.0667 12.5966 11.1133L11.875 11.3492C10.6566 11.7469 9.34333 11.7469 8.12496 11.3492L7.40329 11.1133C7.25717 11.0658 7.10446 11.0416 6.95079 11.0417H6.66663Z" fill="#888888"/>
</svg>
