<svg width="20" height="20" viewBox="0 0 20 20" fill="none" xmlns="http://www.w3.org/2000/svg">
<path d="M3.33337 6.66665C3.33337 5.78259 3.68456 4.93474 4.30968 4.30962C4.93481 3.6845 5.78265 3.33331 6.66671 3.33331H13.3334C14.2174 3.33331 15.0653 3.6845 15.6904 4.30962C16.3155 4.93474 16.6667 5.78259 16.6667 6.66665V13.3333C16.6667 14.2174 16.3155 15.0652 15.6904 15.6903C15.0653 16.3155 14.2174 16.6666 13.3334 16.6666H6.66671C5.78265 16.6666 4.93481 16.3155 4.30968 15.6903C3.68456 15.0652 3.33337 14.2174 3.33337 13.3333V6.66665ZM6.66671 5.83331C6.44569 5.83331 6.23373 5.92111 6.07745 6.07739C5.92117 6.23367 5.83337 6.44563 5.83337 6.66665V13.3333C5.83337 13.5543 5.92117 13.7663 6.07745 13.9226C6.23373 14.0788 6.44569 14.1666 6.66671 14.1666H13.3334C13.5544 14.1666 13.7663 14.0788 13.9226 13.9226C14.0789 13.7663 14.1667 13.5543 14.1667 13.3333V6.66665C14.1667 6.44563 14.0789 6.23367 13.9226 6.07739C13.7663 5.92111 13.5544 5.83331 13.3334 5.83331H6.66671Z" fill="white"/>
</svg>
