<svg width="20" height="20" viewBox="0 0 20 20" fill="none" xmlns="http://www.w3.org/2000/svg">
<path d="M16.8874 7.9442H12.0546V3.1126C12.0546 3.01648 12.0164 2.92432 11.9485 2.85633C11.8805 2.78835 11.7884 2.75011 11.6922 2.75H8.30724C8.21111 2.75005 8.11893 2.78828 8.05098 2.85627C7.98302 2.92427 7.94484 3.01647 7.94484 3.1126L7.94464 7.9446L3.11284 7.9444C2.92064 7.9444 2.75044 8.1146 2.75024 8.307V11.692C2.75019 11.7396 2.75954 11.7868 2.77774 11.8308C2.79595 11.8748 2.82266 11.9148 2.85634 11.9484C2.89003 11.9821 2.93002 12.0088 2.97404 12.027C3.01805 12.0452 3.06522 12.0545 3.11284 12.0544H7.94484V16.8874C7.9449 16.9836 7.98312 17.0757 8.05111 17.1437C8.11909 17.2117 8.21129 17.2499 8.30744 17.25H11.692C11.7397 17.25 11.7868 17.2406 11.8308 17.2224C11.8748 17.2042 11.9148 17.1775 11.9484 17.1438C11.9821 17.1101 12.0088 17.0702 12.027 17.0262C12.0453 16.9822 12.0546 16.935 12.0546 16.8874V12.0546L16.8872 12.0544C16.9349 12.0545 16.9821 12.0452 17.0261 12.027C17.0701 12.0088 17.1101 11.9821 17.1438 11.9484C17.1775 11.9147 17.2042 11.8747 17.2224 11.8307C17.2406 11.7866 17.2499 11.7394 17.2498 11.6918L17.25 8.3068C17.25 8.21063 17.2118 8.1184 17.1438 8.0504C17.0758 7.9824 16.9836 7.9442 16.8874 7.9442Z" fill="white"/>
</svg>
