<svg width="20" height="20" viewBox="0 0 20 20" fill="none" xmlns="http://www.w3.org/2000/svg">
<path d="M16.8874 7.94421H12.0546V8.1126C12.0546 8.01648 12.0164 7.92432 11.9485 7.85633C11.8805 7.78835 11.7884 7.75011 11.6922 7.75H8.30724C8.21111 7.75005 8.11893 7.78828 8.05098 7.85627C7.98302 7.92427 7.94484 8.01647 7.94484 8.1126L7.94464 7.94461L3.11284 7.94441C2.92064 7.94441 2.75044 8.11461 2.75024 8.30701V11.692C2.75019 11.7396 2.75954 11.7868 2.77774 11.8308C2.79595 11.8748 2.82266 11.9148 2.85634 11.9484C2.89003 11.9821 2.93002 12.0088 2.97404 12.027C3.01805 12.0452 3.06522 12.0545 3.11284 12.0544H7.94484V12C7.9449 12.0962 7.98312 12.1883 8.05111 12.2563C8.11909 12.3243 8.21129 12.3625 8.30744 12.3626H11.692C11.7397 12.3626 11.7868 12.3532 11.8308 12.335C11.8748 12.3168 11.9148 12.2901 11.9484 12.2564C11.9821 12.2227 12.0088 12.1828 12.027 12.1388C12.0453 12.0948 12.0546 12.0476 12.0546 12V12.0546L16.8872 12.0544C16.9349 12.0545 16.9821 12.0452 17.0261 12.027C17.0701 12.0088 17.1101 11.9821 17.1438 11.9484C17.1775 11.9147 17.2042 11.8747 17.2224 11.8307C17.2406 11.7866 17.2499 11.7394 17.2498 11.6918L17.25 8.30681C17.25 8.21064 17.2118 8.11841 17.1438 8.05041C17.0758 7.98241 16.9836 7.94421 16.8874 7.94421Z" fill="black" fill-opacity="0.3"/>
</svg>
