<svg width="20" height="20" viewBox="0 0 20 20" fill="none" xmlns="http://www.w3.org/2000/svg">
<path d="M3.4375 17.5C2.85734 17.5 2.30094 17.2695 1.8907 16.8593C1.48047 16.4491 1.25 15.8927 1.25 15.3125V12.1875C1.25 11.9389 1.34877 11.7004 1.52459 11.5246C1.7004 11.3488 1.93886 11.25 2.1875 11.25C2.43614 11.25 2.6746 11.3488 2.85041 11.5246C3.02623 11.7004 3.125 11.9389 3.125 12.1875V15.3125C3.125 15.485 3.265 15.625 3.4375 15.625H16.5625C16.6454 15.625 16.7249 15.5921 16.7835 15.5335C16.8421 15.4749 16.875 15.3954 16.875 15.3125V12.1875C16.875 11.9389 16.9738 11.7004 17.1496 11.5246C17.3254 11.3488 17.5639 11.25 17.8125 11.25C18.0611 11.25 18.2996 11.3488 18.4754 11.5246C18.6512 11.7004 18.75 11.9389 18.75 12.1875V15.3125C18.75 15.8927 18.5195 16.4491 18.1093 16.8593C17.6991 17.2695 17.1427 17.5 16.5625 17.5H3.4375Z" fill="#444444"/>
<path d="M14.7249 5.90006C14.8119 5.98706 14.8809 6.09034 14.928 6.20402C14.9751 6.31769 14.9993 6.43952 14.9993 6.56256C14.9993 6.6856 14.9751 6.80743 14.928 6.9211C14.8809 7.03477 14.8119 7.13806 14.7249 7.22506C14.6379 7.31206 14.5346 7.38107 14.4209 7.42816C14.3073 7.47524 14.1854 7.49948 14.0624 7.49948C13.9394 7.49948 13.8175 7.47524 13.7039 7.42816C13.5902 7.38107 13.4869 7.31206 13.3999 7.22506L10.9374 4.76381V11.8751C10.9374 12.1237 10.8386 12.3622 10.6628 12.538C10.487 12.7138 10.2485 12.8126 9.9999 12.8126C9.75126 12.8126 9.51281 12.7138 9.33699 12.538C9.16118 12.3622 9.0624 12.1237 9.0624 11.8751V4.76381L6.59991 7.22506C6.5129 7.31206 6.40962 7.38107 6.29595 7.42816C6.18228 7.47524 6.06044 7.49948 5.9374 7.49948C5.81437 7.49948 5.69253 7.47524 5.57886 7.42816C5.46519 7.38107 5.36191 7.31206 5.2749 7.22506C5.1879 7.13806 5.11889 7.03477 5.07181 6.9211C5.02472 6.80743 5.00049 6.6856 5.00049 6.56256C5.00049 6.43952 5.02472 6.31769 5.07181 6.20402C5.11889 6.09034 5.1879 5.98706 5.2749 5.90006L9.3374 1.83756C9.42436 1.75048 9.52763 1.6814 9.64131 1.63426C9.75499 1.58713 9.87684 1.56287 9.9999 1.56287C10.123 1.56287 10.2448 1.58713 10.3585 1.63426C10.4722 1.6814 10.5754 1.75048 10.6624 1.83756L14.7249 5.90006Z" fill="#444444"/>
</svg>
