<svg width="20" height="20" viewBox="0 0 20 20" fill="none" xmlns="http://www.w3.org/2000/svg">
<g clip-path="url(#clip0_221_10371)">
<path d="M16.6667 10.8333V9.16667C16.6667 8.94097 16.5842 8.74566 16.4193 8.58073C16.2543 8.4158 16.059 8.33333 15.8333 8.33333H11.6667V4.16667C11.6667 3.94097 11.5842 3.74566 11.4193 3.58073C11.2543 3.4158 11.059 3.33333 10.8333 3.33333H9.16667C8.94097 3.33333 8.74566 3.4158 8.58073 3.58073C8.4158 3.74566 8.33333 3.94097 8.33333 4.16667V8.33333H4.16667C3.94097 8.33333 3.74566 8.4158 3.58073 8.58073C3.4158 8.74566 3.33333 8.94097 3.33333 9.16667V10.8333C3.33333 11.059 3.4158 11.2543 3.58073 11.4193C3.74566 11.5842 3.94097 11.6667 4.16667 11.6667H8.33333V15.8333C8.33333 16.059 8.4158 16.2543 8.58073 16.4193C8.74566 16.5842 8.94097 16.6667 9.16667 16.6667H10.8333C11.059 16.6667 11.2543 16.5842 11.4193 16.4193C11.5842 16.2543 11.6667 16.059 11.6667 15.8333V11.6667H15.8333C16.059 11.6667 16.2543 11.5842 16.4193 11.4193C16.5842 11.2543 16.6667 11.059 16.6667 10.8333ZM20 3.75V16.25C20 17.283 19.6332 18.1662 18.8997 18.8997C18.1662 19.6332 17.283 20 16.25 20H3.75C2.71701 20 1.83377 19.6332 1.10026 18.8997C0.366753 18.1662 0 17.283 0 16.25V3.75C0 2.71701 0.366753 1.83377 1.10026 1.10026C1.83377 0.366753 2.71701 0 3.75 0H16.25C17.283 0 18.1662 0.366753 18.8997 1.10026C19.6332 1.83377 20 2.71701 20 3.75Z" fill="#888888"/>
</g>
<defs>
<clipPath id="clip0_221_10371">
<rect width="20" height="20" fill="white"/>
</clipPath>
</defs>
</svg>
