<svg width="20" height="20" viewBox="0 0 20 20" fill="none" xmlns="http://www.w3.org/2000/svg">
<g clip-path="url(#clip0_170_9072)">
<path d="M7.44996 10.7833C7.67671 10.5576 7.98138 10.4274 8.30122 10.4196C8.62107 10.4118 8.93174 10.5269 9.16926 10.7412C9.40678 10.9556 9.55307 11.2529 9.57801 11.5718C9.60294 11.8908 9.50462 12.2072 9.30329 12.4558L9.21746 12.5508L5.93329 15.8333H7.08329C7.40431 15.8335 7.71295 15.9571 7.94528 16.1787C8.17761 16.4002 8.3158 16.7026 8.33123 17.0233C8.34666 17.3439 8.23813 17.6582 8.02815 17.901C7.81816 18.1438 7.52281 18.2965 7.20329 18.3275L7.08329 18.3333H2.91663C2.60589 18.3333 2.3063 18.2176 2.07628 18.0086C1.84625 17.7997 1.70229 17.5126 1.67246 17.2033L1.66663 17.0833V12.9167C1.66678 12.5957 1.79044 12.287 2.01197 12.0547C2.23349 11.8224 2.53591 11.6842 2.85655 11.6687C3.1772 11.6533 3.49149 11.7618 3.73429 11.9718C3.9771 12.1818 4.12982 12.4771 4.16079 12.7967L4.16663 12.9167V14.0658L7.44996 10.7833ZM17.0833 1.66667C17.394 1.66668 17.6936 1.78243 17.9236 1.99135C18.1537 2.20026 18.2976 2.48737 18.3275 2.79667L18.3333 2.91667V7.08333C18.3331 7.40435 18.2095 7.713 17.988 7.94532C17.7664 8.17765 17.464 8.31584 17.1434 8.33127C16.8227 8.3467 16.5084 8.23817 16.2656 8.02819C16.0228 7.8182 15.8701 7.52285 15.8391 7.20333L15.8333 7.08333V5.93417L12.55 9.2175C12.3235 9.4448 12.0182 9.57631 11.6975 9.58478C11.3767 9.59325 11.065 9.47804 10.8268 9.263C10.5886 9.04797 10.4423 8.74957 10.4181 8.42961C10.3938 8.10965 10.4936 7.79262 10.6966 7.54417L10.7825 7.44917L14.0666 4.16667H12.9166C12.5956 4.16651 12.287 4.04285 12.0546 3.82133C11.8223 3.5998 11.6841 3.29738 11.6687 2.97674C11.6533 2.65609 11.7618 2.34181 11.9718 2.099C12.1818 1.85619 12.4771 1.70348 12.7966 1.6725L12.9166 1.66667H17.0833Z" fill="white"/>
</g>
<defs>
<clipPath id="clip0_170_9072">
<rect width="20" height="20" fill="white"/>
</clipPath>
</defs>
</svg>
