<svg width="92" height="50" viewBox="0 0 92 50" fill="none" xmlns="http://www.w3.org/2000/svg">
<path fill-rule="evenodd" clip-rule="evenodd" d="M88.6082 36.2835C89.9988 36.3959 91 35.1041 91 35.1041C90.11 32.4084 89.6094 24.4896 73.2561 30.6674C60.7965 35.3849 49.2824 39.0916 41.9957 38.2492C34.0416 37.4068 34.1528 35.048 35.0428 30.4989C35.8215 27.1854 39.4927 12.9766 40.4383 11.9095C40.4383 11.9095 36.4334 12.0218 35.8215 12.0218C32.2616 12.0218 26.143 11.6287 23.8068 13.3135C21.8044 14.7737 20.6919 16.0093 20.4138 18.4804C20.3026 19.379 20.2469 23.928 23.2506 23.5911L25.0306 21.9062C21.415 21.2884 21.7488 18.0872 21.8044 17.1887C22.2494 12.3588 26.9774 13.5382 32.5954 13.6505C32.8178 13.6505 36.3221 13.819 36.8227 13.8751C37.2677 13.9313 37.0452 14.5491 36.8227 15.0545C36.6002 15.6161 34.8203 21.4569 34.8203 21.4569C34.8203 21.4569 31.4273 21.5131 31.0935 21.4569C30.8154 21.4008 30.871 21.4569 31.0379 21.2323C31.2048 21.0076 35.0984 17.1325 35.0984 17.1325L35.6546 15.2792C35.6546 15.2792 35.4322 15.3353 35.3765 15.4477C35.0984 15.7285 31.1491 19.9967 31.1491 19.9967C29.9811 20.8953 17.2989 33.9809 10.0678 35.8342C3.33741 37.5752 1.16809 35.3849 0.278117 33.5878C0.16687 33.3631 0 33.1947 0 33.1947C0.16687 34.4302 0.778728 41.0011 10.5685 36.8451C20.4694 32.5769 25.698 25.7252 28.813 23.7595C30.5373 22.6363 34.2084 22.1309 34.2641 22.861C34.3197 23.5349 31.9835 29.9373 32.651 33.0262C33.9859 38.9231 41.2726 42.2928 58.2934 38.193C70.2524 35.3288 73.5342 31.6783 83.2683 29.6565C91.3337 28.0278 88.6082 36.2835 88.6082 36.2835ZM45.3331 14.4367C45.3331 14.4367 44.2763 16.1778 44.7213 16.2339H47.4468C46.2231 20.3899 44.7769 25.7813 44.5544 27.5785C44.4432 28.4771 44.8325 29.7126 45.5556 29.9373C46.0006 30.0496 46.4456 29.3195 47.2243 28.5333C47.6693 28.1401 47.7249 27.9716 48.3368 27.0169C48.5593 26.6238 48.6149 26.006 48.3924 26.2868C48.0587 26.6799 48.0031 26.7923 47.6137 27.1854C47.0018 27.8032 46.9462 27.747 46.5012 27.8593C46.2231 27.9716 46.2787 27.0169 46.8906 24.9389C46.8906 24.9389 48.1143 20.3899 49.338 16.2901H51.7854C54.4554 16.7394 58.6828 13.3697 58.2378 10.7863L56.291 10C56.291 10 56.4578 10.5055 56.3466 11.6287C56.291 12.6396 55.1229 15.2792 52.5642 15.4477C50.7842 15.56 49.6161 15.223 49.6161 15.223C50.1724 13.2012 50.673 11.3479 50.8955 10.8424C51.0623 10.337 48.9487 11.404 48.6705 11.9095C48.6705 11.9095 48.2812 13.145 47.7806 14.9422C47.8362 14.886 45.3888 14.7737 45.3331 14.4367ZM40.1045 29.9373C40.5495 30.0496 40.9945 29.3195 41.7732 28.5333C42.2182 28.1401 42.2738 27.9716 42.8857 27.0169C43.1082 26.6238 43.1638 26.006 42.9413 26.2868C42.6076 26.6799 42.552 26.7923 42.1626 27.1854C41.5507 27.8032 41.4951 27.747 41.0501 27.8593C40.772 27.9716 40.8276 27.0169 41.4395 24.9389C41.4395 24.9389 44.8881 12.3588 45.5 10.7863C45.6669 10.2808 43.5532 11.3479 43.2751 11.8533C43.2751 11.8533 39.437 24.602 39.1033 27.5785C38.9921 28.4209 39.437 29.7126 40.1045 29.9373ZM58.4603 19.2666C58.9053 18.7612 59.2946 18.1434 59.5171 17.9188C60.3515 17.0202 61.1858 16.4586 61.7421 16.4586C62.2983 16.4586 62.4652 16.9079 62.2983 17.9188C62.2427 18.3119 61.5196 20.9515 61.4083 21.3446C61.2414 22.3555 61.4083 24.602 63.8557 21.0076C64.1339 20.446 64.4676 19.9967 64.9126 19.3228C66.0251 17.6379 66.3588 17.2448 68.6394 16.7394C69.1956 16.627 69.7518 16.5709 70.4749 16.5147C70.4749 16.5147 69.1956 21.2884 69.0287 22.2432C68.8619 23.1979 69.0844 24.1527 70.1968 22.4678C71.3093 20.7268 72.8667 17.1887 74.2017 16.7955C75.481 16.4024 74.8136 19.6598 74.6467 20.3899C74.6467 20.3899 76.2598 18.3119 76.4823 18.0311C76.7048 17.7503 79.5972 14.6052 78.8741 19.4913C78.7628 20.2214 78.4291 21.3446 78.2622 21.8501C77.5947 24.0965 77.6504 25.1636 78.5403 25.4444C79.1522 25.669 82.4896 26.3991 85.5489 24.6581C85.5489 24.6581 88.5526 23.3664 87.1064 19.7721C86.717 18.8173 85.4377 18.3119 84.937 17.9188C84.8258 17.8064 84.5477 17.8064 84.6033 17.6379C84.8258 16.5709 86.1608 16.627 86.3276 16.627C86.5501 16.627 87.4957 17.6941 87.7182 18.2557C89.6094 23.0856 85.7714 25.1636 85.4933 25.3882C83.4908 27.0169 79.9309 27.9155 77.0385 27.1292C74.4242 26.3991 76.5379 20.6707 76.816 19.9967C77.0385 19.3228 77.261 17.8626 75.926 19.4351C74.5911 21.0638 73.2005 25.7813 73.0336 26.7361H71.198C71.1424 26.1745 72.2549 21.7377 72.3661 20.9515C72.4218 20.1652 71.8099 21.3446 71.8099 21.3446C70.5862 24.5458 68.5837 27.0731 68.0275 27.0731C67.6381 27.0731 66.915 26.6799 66.915 26.006C66.915 25.7813 66.8594 24.6581 66.8594 24.6581C66.7482 24.8828 66.6925 24.9951 65.9138 25.8375C65.1351 26.6799 64.412 27.1292 63.9114 27.1854C63.1326 27.1854 62.7989 26.3991 62.9101 24.8266C62.9101 24.7704 62.9101 24.6581 62.9101 24.602C63.077 23.9842 62.2983 24.3212 61.9646 24.6581C61.2414 25.3882 60.0177 26.7923 59.6284 26.7923C59.1278 26.7923 58.6828 26.3991 58.7384 25.6129C58.794 24.8266 59.3502 21.5692 59.4615 21.0638C60.3515 17.6941 58.8496 19.1543 58.2378 19.9967C57.459 21.12 56.9028 22.524 56.6247 23.7034L55.7903 26.6799L54.066 26.7923L54.1216 26.5114L54.2885 25.7252L54.4554 24.9951L55.3454 21.0638L55.5122 20.5583C55.5678 20.2775 55.6235 19.9967 55.6791 19.7721C56.0685 17.5256 54.511 19.3228 54.1216 19.8282C53.1204 21.0638 52.7867 22.187 52.5086 23.3664C52.3417 23.928 52.1192 26.0622 52.1192 26.6799L50.0055 26.8484L50.0611 26.5676L50.228 25.7813L50.3949 25.0513L51.1736 20.8953L51.2848 20.3337C51.3961 19.8844 51.4517 19.5474 51.5073 19.3228C52.0636 17.1325 49.8943 19.379 49.6161 19.6036C49.6161 19.6036 49.4493 19.2666 49.5605 19.1543C49.8943 18.705 50.3949 18.368 51.1736 17.7503C51.9523 17.0763 52.5642 16.5709 52.8979 16.5709C53.3985 16.5709 53.621 17.0763 53.5098 17.8626C53.4542 18.0311 53.2873 19.9967 53.2873 19.9967C53.2317 20.2214 53.176 20.446 53.4542 20.1652C54.6779 18.8173 56.0128 16.5147 57.1253 16.5147C57.6815 16.5147 57.904 17.6941 57.6815 18.5927C57.6259 19.6036 57.2366 20.783 58.4603 19.2666ZM65.1907 23.4787C65.2463 24.2088 65.4132 24.5458 65.7469 24.4896C66.1363 24.4335 66.6925 24.265 67.0263 23.1979C67.1932 22.6925 68.0831 20.8391 68.1388 19.4913L68.3056 18.1996C67.9163 17.9749 67.4713 17.9749 67.0263 18.1434C66.47 18.368 66.0251 19.0981 65.6913 20.109C65.3576 21.0638 65.1351 22.0747 65.1907 23.4787Z" fill="#041F3E"/>
<path d="M67.56 42.088H67.816L67.712 44H63.352V43.752H64.104V38.736H63.352V38.488H65.568V38.736H64.816V43.752L66.04 43.728C66.184 43.728 66.3627 43.688 66.576 43.608C66.7893 43.528 66.9467 43.4373 67.048 43.336C67.368 43.0373 67.5387 42.6213 67.56 42.088ZM70.8363 43.752V44H68.5483V43.752H69.3003V38.736H68.5483V38.488H70.8363V38.736H70.0923V43.752H70.8363ZM76.8913 38.504V38.744C76.614 38.7387 76.4246 38.7707 76.3233 38.84C76.174 38.936 76.0246 39.192 75.8753 39.608L74.1393 44.168H73.8193L71.9393 38.744H71.3393V38.504H73.4113V38.744H72.7713L74.2433 42.968L75.5553 39.608C75.6513 39.3573 75.6993 39.176 75.6993 39.064C75.6993 38.952 75.6833 38.872 75.6513 38.824C75.63 38.7707 75.462 38.744 75.1473 38.744V38.504H76.8913ZM79.6253 43.752V44H77.3373V43.752H78.0893V38.736H77.3373V38.488H79.6253V38.736H78.8813V43.752H79.6253ZM85.6484 38.488V38.736C85.339 38.736 85.1577 38.7627 85.1044 38.816C84.9657 38.9547 84.8964 39.16 84.8964 39.432L84.9124 44.136H84.7284L81.3444 38.92V43.064C81.3444 43.3413 81.411 43.544 81.5444 43.672C81.5977 43.7253 81.779 43.752 82.0884 43.752V44H80.3204V43.752C80.619 43.752 80.795 43.728 80.8484 43.68C80.9977 43.552 81.0724 43.3467 81.0724 43.064V38.92C81.0564 38.7973 80.9764 38.736 80.8324 38.736H80.3844V38.488H81.9844L84.6324 42.608V39.432C84.6324 39.16 84.5577 38.952 84.4084 38.808C84.3497 38.76 84.1737 38.736 83.8804 38.736V38.488H85.6484ZM91.0276 41.832V42.088H90.7556V43.72C90.6436 43.752 90.4862 43.8027 90.2836 43.872C90.0809 43.936 89.9609 43.9733 89.9236 43.984C89.5716 44.0693 89.1742 44.112 88.7316 44.112C88.0649 44.112 87.4836 43.8347 86.9876 43.28C86.5182 42.7147 86.2862 42.0213 86.2916 41.2C86.2969 40.3733 86.5369 39.688 87.0116 39.144C87.4809 38.6267 88.0542 38.368 88.7316 38.368C89.1902 38.368 89.5502 38.4 89.8116 38.464C89.9182 38.4853 90.1156 38.552 90.4036 38.664V39.92H90.1636C90.1262 39.456 89.9982 39.1173 89.7796 38.904C89.5609 38.6907 89.2249 38.5947 88.7716 38.616C87.7316 38.68 87.2116 39.5547 87.2116 41.24C87.2116 42.0027 87.3476 42.624 87.6196 43.104C87.8916 43.5787 88.2542 43.8187 88.7076 43.824C88.9742 43.8293 89.2649 43.7707 89.5796 43.648C89.8569 43.552 90.0089 43.456 90.0356 43.36C90.0622 43.3067 90.0756 43.2 90.0756 43.04V42.088H89.1716V41.832H91.0276Z" fill="#041E3D"/>
</svg>
